<svg id="kity_svg_6"
    xmlns="http://www.w3.org/2000/svg"
    xmlns:xlink="http://www.w3.org/1999/xlink" version="1.1" width="790" height="362" style="background: rgb(251, 251, 251); visibility: visible;" viewBox="0 0 790 362">
    <defs id="kitymindJSON">{"root":{"data":{"text":"百度产品","image":"https://www.baidu.com/img/bd_logo1.png?where=super","imageSize":{"width":270,"height":129}},"children":[{"data":{"text":"新闻"},"children":[]},{"data":{"text":"网页","priority":1},"children":[]},{"data":{"text":"贴吧","priority":2},"children":[]},{"data":{"text":"知道","priority":2},"children":[]},{"data":{"text":"音乐","priority":3},"children":[]},{"data":{"text":"图片","priority":3},"children":[]},{"data":{"text":"视频","priority":3},"children":[]},{"data":{"text":"地图","priority":3},"children":[]},{"data":{"text":"百科","priority":3},"children":[]},{"data":{"text":"更多","hyperlink":"http://www.baidu.com/more"},"children":[]}]},"template":"default","theme":"fresh-blue","version":"1.4.43"}</defs>
    <defs id="kity_defs_7">
        <linearGradient id="kity_linearGradient_17" x1="0" y1="0" x2="0" y2="1">
            <stop id="kity_stop_18" offset="0" stop-color="rgb(255, 255, 255)"></stop>
            <stop id="kity_stop_19" offset="1" stop-color="rgb(204, 204, 204)"></stop>
        </linearGradient>
        <marker id="kity_marker_2" orient="auto" refX="6" refY="0" viewBox="-7 -7 14 14" markerWidth="7" markerHeight="7" markerUnits="userSpaceOnUse">
            <path id="kity_path_3" fill="rgb(115, 161, 191)" stroke="none" d="M6,0A6,6,0,1,1,-6,0A6,6,0,1,1,6,0"></path>
        </marker>
    </defs>
    <g id="kity_g_8">
        <g id="minder1" text-rendering="optimize-speed">
            <g id="minder_connect_group1">
                <path id="kity_path_25" fill="none" stroke="rgb(115, 161, 191)" stroke-width="1" d="M396.50001127272844,180.00000125914812A277,143.5,0,0,1,673.5000112727284,36.50000125914812"></path>
                <path id="kity_path_27" fill="none" stroke="rgb(115, 161, 191)" stroke-width="1" d="M396.50001127272844,180.00000125914812A277,74.5,0,0,1,673.5000112727284,105.50000125914812"></path>
                <path id="kity_path_29" fill="none" stroke="rgb(115, 161, 191)" stroke-width="1" d="M396.50001127272844,180.00000125914812A277,2.5,0,0,1,673.5000112727284,177.50000125914812"></path>
                <path id="kity_path_31" fill="none" stroke="rgb(115, 161, 191)" stroke-width="1" d="M396.50001127272844,180.00000125914812A277,69.5,0,0,0,673.5000112727284,249.50000125914812"></path>
                <path id="kity_path_33" fill="none" stroke="rgb(115, 161, 191)" stroke-width="1" d="M396.50001127272844,180.00000125914812A277,141.5,0,0,0,673.5000112727284,321.5000012591481"></path>
                <path id="kity_path_35" fill="none" stroke="rgb(115, 161, 191)" stroke-width="1" d="M396.50001127272844,180.00000125914812A277,144.5,0,0,0,119.50001127272844,35.50000125914812"></path>
                <path id="kity_path_37" fill="none" stroke="rgb(115, 161, 191)" stroke-width="1" d="M396.50001127272844,180.00000125914812A277,72.5,0,0,0,119.50001127272844,107.50000125914812"></path>
                <path id="kity_path_39" fill="none" stroke="rgb(115, 161, 191)" stroke-width="1" d="M396.50001127272844,180.00000125914812A277,0.5,0,0,0,119.50001127272844,179.50000125914812"></path>
                <path id="kity_path_41" fill="none" stroke="rgb(115, 161, 191)" stroke-width="1" d="M396.50001127272844,180.00000125914812A277,71.5,0,0,1,119.50001127272844,251.50000125914812"></path>
                <path id="kity_path_43" fill="none" stroke="rgb(115, 161, 191)" stroke-width="1" d="M396.50001127272844,180.00000125914812A277,144.5,0,0,1,119.50001127272844,324.5000012591481"></path>
            </g>
            <g id="minder_node1">
                <path id="node_outline1" fill="rgb(115, 161, 191)" stroke="rgb(115, 161, 191)" d="M242.50001127272844,90.50000125914812h308a5,5,0,0,1,5,5v169a5,5,0,0,1,-5,5h-308a5,5,0,0,1,-5,-5v-169a5,5,0,0,1,5,-5z"></path>
                <g id="node_text1" fill="white">
                    <text id="kity_text_22" text-rendering="inherit" font-size="16" dy=".8em" y="239.10000122338533" x="364.50001127272844">百度产品</text>
                </g>
                <image id="kity_image_107" xlink:href="https://www.baidu.com/img/bd_logo1.png?where=super" x="261.50001127272844" y="102.50000125914812" width="270" height="129"></image>
            </g>
            <g id="kity_g_12">
                <path id="kity_path_13" fill="none" stroke="none" d="M364.50001127272844,249.50000125914812h0v0h0z"></path>
            </g>
            <g id="kity_g_14">
                <path id="kity_path_15" fill="none" stroke="none" d="M364.50001127272844,249.50000125914812h0v0h0z"></path>
                <path id="kity_path_16" fill="none" stroke="none"></path>
            </g>
            <g id="minder_node2">
                <g id="node_expander1" display="none" style="cursor: pointer;">
                    <path id="kity_path_119" fill="white" stroke="gray" d="M674.5000158026814,36.49999808520079A6,6,0,1,1,662.5000158026814,36.49999808520079A6,6,0,1,1,674.5000158026814,36.49999808520079"></path>
                    <path id="kity_path_120" fill="none" stroke="gray"></path>
                </g>
                <path id="node_outline2" fill="rgb(238, 243, 246)" stroke="rgb(115, 161, 191)" d="M678.5000162050128,23.499998085200787h63a3,3,0,0,1,3,3v20a3,3,0,0,1,-3,3h-63a3,3,0,0,1,-3,-3v-20a3,3,0,0,1,3,-3z" stroke-width="1"></path>
                <g id="node_text2" fill="black">
                    <text id="kity_text_45" text-rendering="inherit" font-size="14" dy=".8em" y="27.399998053908348" x="695.5000162050128">新闻</text>
                </g>
            </g>
            <g id="minder_node3">
                <g id="node_expander2" display="none" style="cursor: pointer;">
                    <path id="kity_path_122" fill="white" stroke="gray" d="M674.5000158026814,105.49999911338091A6,6,0,1,1,662.5000158026814,105.49999911338091A6,6,0,1,1,674.5000158026814,105.49999911338091"></path>
                    <path id="kity_path_123" fill="none" stroke="gray"></path>
                </g>
                <path id="node_outline3" fill="rgb(238, 243, 246)" stroke="rgb(115, 161, 191)" d="M678.5000165775418,89.49999911338091h87a3,3,0,0,1,3,3v26a3,3,0,0,1,-3,3h-87a3,3,0,0,1,-3,-3v-26a3,3,0,0,1,3,-3z" stroke-width="1"></path>
                <g id="node_text3" fill="black">
                    <text id="kity_text_47" text-rendering="inherit" font-size="14" dy=".8em" y="96.39999908208847" x="720.5000165775418">网页</text>
                </g>
                <g id="node_priority1">
                    <path id="kity_path_66" fill="#840023" stroke="none" d="M696.0000162124634,108.99999897181988c0,3.866,3.134,7,7,7h6c3.866,0,7,-3.134,7,-7V102.99999897181988H696.0000162124634V108.99999897181988z"></path>
                    <path id="kity_path_67" fill="#FF1200" stroke="none" d="M716.0000162124634,105.99999897181988c0,3.866,-3.134,7,-7,7H703.0000162124634c-3.866,0,-7,-3.134,-7,-7V102.99999897181988c0,-3.866,3.134,-7,7,-7h6c3.866,0,7,3.134,7,7V105.99999897181988z" opacity="0.8"></path>
                    <text id="kity_text_68" text-rendering="geometricPrecision" x="705.0000162050128" y="105.4999989643693" text-anchor="middle" font-style="italic" font-size="12" fill="white" dy="5">1</text>
                </g>
            </g>
            <g id="minder_node4">
                <g id="node_expander3" display="none" style="cursor: pointer;">
                    <path id="kity_path_125" fill="white" stroke="gray" d="M674.5000158026814,177.50000018626451A6,6,0,1,1,662.5000158026814,177.50000018626451A6,6,0,1,1,674.5000158026814,177.50000018626451"></path>
                    <path id="kity_path_126" fill="none" stroke="gray"></path>
                </g>
                <path id="node_outline4" fill="rgb(238, 243, 246)" stroke="rgb(115, 161, 191)" d="M678.5000165775418,161.50000018626451h87a3,3,0,0,1,3,3v26a3,3,0,0,1,-3,3h-87a3,3,0,0,1,-3,-3v-26a3,3,0,0,1,3,-3z" stroke-width="1"></path>
                <g id="node_text4" fill="black">
                    <text id="kity_text_49" text-rendering="inherit" font-size="14" dy=".8em" y="168.40000015497208" x="720.5000165775418">贴吧</text>
                </g>
                <g id="node_priority2">
                    <path id="kity_path_71" fill="#01467F" stroke="none" d="M696.0000162124634,181.00000004470348c0,3.866,3.134,7,7,7h6c3.866,0,7,-3.134,7,-7V175.00000004470348H696.0000162124634V181.00000004470348z"></path>
                    <path id="kity_path_72" fill="#0074FF" stroke="none" d="M716.0000162124634,178.00000004470348c0,3.866,-3.134,7,-7,7H703.0000162124634c-3.866,0,-7,-3.134,-7,-7V175.00000004470348c0,-3.866,3.134,-7,7,-7h6c3.866,0,7,3.134,7,7V178.00000004470348z" opacity="0.8"></path>
                    <text id="kity_text_73" text-rendering="geometricPrecision" x="705.0000162050128" y="177.5000000372529" text-anchor="middle" font-style="italic" font-size="12" fill="white" dy="5">2</text>
                </g>
            </g>
            <g id="minder_node5">
                <g id="node_expander4" display="none" style="cursor: pointer;">
                    <path id="kity_path_128" fill="white" stroke="gray" d="M674.5000158026814,249.50000125914812A6,6,0,1,1,662.5000158026814,249.50000125914812A6,6,0,1,1,674.5000158026814,249.50000125914812"></path>
                    <path id="kity_path_129" fill="none" stroke="gray"></path>
                </g>
                <path id="node_outline5" fill="rgb(238, 243, 246)" stroke="rgb(115, 161, 191)" d="M678.5000165775418,233.50000125914812h89a3,3,0,0,1,3,3v26a3,3,0,0,1,-3,3h-89a3,3,0,0,1,-3,-3v-26a3,3,0,0,1,3,-3z" stroke-width="1"></path>
                <g id="node_text5" fill="black">
                    <text id="kity_text_51" text-rendering="inherit" font-size="14" dy=".8em" y="240.40000122785568" x="720.5000165775418">知道</text>
                </g>
                <g id="node_priority3">
                    <path id="kity_path_76" fill="#01467F" stroke="none" d="M696.0000162124634,253.0000011175871c0,3.866,3.134,7,7,7h6c3.866,0,7,-3.134,7,-7V247.0000011175871H696.0000162124634V253.0000011175871z"></path>
                    <path id="kity_path_77" fill="#0074FF" stroke="none" d="M716.0000162124634,250.0000011175871c0,3.866,-3.134,7,-7,7H703.0000162124634c-3.866,0,-7,-3.134,-7,-7V247.0000011175871c0,-3.866,3.134,-7,7,-7h6c3.866,0,7,3.134,7,7V250.0000011175871z" opacity="0.8"></path>
                    <text id="kity_text_78" text-rendering="geometricPrecision" x="705.0000162050128" y="249.5000011101365" text-anchor="middle" font-style="italic" font-size="12" fill="white" dy="5">2</text>
                </g>
            </g>
            <g id="minder_node6">
                <g id="node_expander5" display="none" style="cursor: pointer;">
                    <path id="kity_path_131" fill="white" stroke="gray" d="M674.5000158026814,321.5000023320317A6,6,0,1,1,662.5000158026814,321.5000023320317A6,6,0,1,1,674.5000158026814,321.5000023320317"></path>
                    <path id="kity_path_132" fill="none" stroke="gray"></path>
                </g>
                <path id="node_outline6" fill="rgb(238, 243, 246)" stroke="rgb(115, 161, 191)" d="M678.5000165775418,305.5000023320317h88a3,3,0,0,1,3,3v26a3,3,0,0,1,-3,3h-88a3,3,0,0,1,-3,-3v-26a3,3,0,0,1,3,-3z" stroke-width="1"></path>
                <g id="node_text6" fill="black">
                    <text id="kity_text_53" text-rendering="inherit" font-size="14" dy=".8em" y="312.4000023007393" x="720.5000165775418">音乐</text>
                </g>
                <g id="node_priority4">
                    <path id="kity_path_81" fill="#006300" stroke="none" d="M696.0000162124634,325.0000021904707c0,3.866,3.134,7,7,7h6c3.866,0,7,-3.134,7,-7V319.0000021904707H696.0000162124634V325.0000021904707z"></path>
                    <path id="kity_path_82" fill="#00AF00" stroke="none" d="M716.0000162124634,322.0000021904707c0,3.866,-3.134,7,-7,7H703.0000162124634c-3.866,0,-7,-3.134,-7,-7V319.0000021904707c0,-3.866,3.134,-7,7,-7h6c3.866,0,7,3.134,7,7V322.0000021904707z" opacity="0.8"></path>
                    <text id="kity_text_83" text-rendering="geometricPrecision" x="705.0000162050128" y="321.5000021830201" text-anchor="middle" font-style="italic" font-size="12" fill="white" dy="5">3</text>
                </g>
            </g>
            <g id="minder_node7">
                <g id="node_expander6" display="none" style="cursor: pointer;">
                    <path id="kity_path_134" fill="white" stroke="gray" d="M130.50000769644976,35.499998070299625A6,6,0,1,1,118.50000769644976,35.499998070299625A6,6,0,1,1,130.50000769644976,35.499998070299625"></path>
                    <path id="kity_path_135" fill="none" stroke="gray"></path>
                </g>
                <path id="node_outline7" fill="rgb(238, 243, 246)" stroke="rgb(115, 161, 191)" d="M27.50000687688589,19.499998070299625h87a3,3,0,0,1,3,3v26a3,3,0,0,1,-3,3h-87a3,3,0,0,1,-3,-3v-26a3,3,0,0,1,3,-3z" stroke-width="1"></path>
                <g id="node_text7" fill="black">
                    <text id="kity_text_55" text-rendering="inherit" font-size="14" dy=".8em" y="26.399998039007187" x="69.50000687688589">图片</text>
                </g>
                <g id="node_priority5">
                    <path id="kity_path_86" fill="#006300" stroke="none" d="M45.00000651180744,38.999997928738594c0,3.866,3.134,7,7,7h6c3.866,0,7,-3.134,7,-7V32.999997928738594H45.00000651180744V38.999997928738594z"></path>
                    <path id="kity_path_87" fill="#00AF00" stroke="none" d="M65.00000651180744,35.999997928738594c0,3.866,-3.134,7,-7,7H52.00000651180744c-3.866,0,-7,-3.134,-7,-7V32.999997928738594c0,-3.866,3.134,-7,7,-7h6c3.866,0,7,3.134,7,7V35.999997928738594z" opacity="0.8"></path>
                    <text id="kity_text_88" text-rendering="geometricPrecision" x="54.00000650435686" y="35.49999792128801" text-anchor="middle" font-style="italic" font-size="12" fill="white" dy="5">3</text>
                </g>
            </g>
            <g id="minder_node8">
                <g id="node_expander7" display="none" style="cursor: pointer;">
                    <path id="kity_path_137" fill="white" stroke="gray" d="M130.50000769644976,107.49999914318323A6,6,0,1,1,118.50000769644976,107.49999914318323A6,6,0,1,1,130.50000769644976,107.49999914318323"></path>
                    <path id="kity_path_138" fill="none" stroke="gray"></path>
                </g>
                <path id="node_outline8" fill="rgb(238, 243, 246)" stroke="rgb(115, 161, 191)" d="M25.50000684708357,91.49999914318323h89a3,3,0,0,1,3,3v26a3,3,0,0,1,-3,3h-89a3,3,0,0,1,-3,-3v-26a3,3,0,0,1,3,-3z" stroke-width="1"></path>
                <g id="node_text8" fill="black">
                    <text id="kity_text_57" text-rendering="inherit" font-size="14" dy=".8em" y="98.39999911189079" x="67.50000684708357">视频</text>
                </g>
                <g id="node_priority6">
                    <path id="kity_path_91" fill="#006300" stroke="none" d="M43.00000648200512,110.9999990016222c0,3.866,3.134,7,7,7h6c3.866,0,7,-3.134,7,-7V104.9999990016222H43.00000648200512V110.9999990016222z"></path>
                    <path id="kity_path_92" fill="#00AF00" stroke="none" d="M63.00000648200512,107.9999990016222c0,3.866,-3.134,7,-7,7H50.00000648200512c-3.866,0,-7,-3.134,-7,-7V104.9999990016222c0,-3.866,3.134,-7,7,-7h6c3.866,0,7,3.134,7,7V107.9999990016222z" opacity="0.8"></path>
                    <text id="kity_text_93" text-rendering="geometricPrecision" x="52.00000647455454" y="107.49999899417162" text-anchor="middle" font-style="italic" font-size="12" fill="white" dy="5">3</text>
                </g>
            </g>
            <g id="minder_node9">
                <g id="node_expander8" display="none" style="cursor: pointer;">
                    <path id="kity_path_140" fill="white" stroke="gray" d="M130.50000769644976,179.50000021606684A6,6,0,1,1,118.50000769644976,179.50000021606684A6,6,0,1,1,130.50000769644976,179.50000021606684"></path>
                    <path id="kity_path_141" fill="none" stroke="gray"></path>
                </g>
                <path id="node_outline9" fill="rgb(238, 243, 246)" stroke="rgb(115, 161, 191)" d="M26.50000686198473,163.50000021606684h88a3,3,0,0,1,3,3v26a3,3,0,0,1,-3,3h-88a3,3,0,0,1,-3,-3v-26a3,3,0,0,1,3,-3z" stroke-width="1"></path>
                <g id="node_text9" fill="black">
                    <text id="kity_text_59" text-rendering="inherit" font-size="14" dy=".8em" y="170.4000001847744" x="68.50000686198473">地图</text>
                </g>
                <g id="node_priority7">
                    <path id="kity_path_96" fill="#006300" stroke="none" d="M44.00000649690628,183.0000000745058c0,3.866,3.134,7,7,7h6c3.866,0,7,-3.134,7,-7V177.0000000745058H44.00000649690628V183.0000000745058z"></path>
                    <path id="kity_path_97" fill="#00AF00" stroke="none" d="M64.00000649690628,180.0000000745058c0,3.866,-3.134,7,-7,7H51.00000649690628c-3.866,0,-7,-3.134,-7,-7V177.0000000745058c0,-3.866,3.134,-7,7,-7h6c3.866,0,7,3.134,7,7V180.0000000745058z" opacity="0.8"></path>
                    <text id="kity_text_98" text-rendering="geometricPrecision" x="53.0000064894557" y="179.50000006705523" text-anchor="middle" font-style="italic" font-size="12" fill="white" dy="5">3</text>
                </g>
            </g>
            <g id="minder_node10">
                <g id="node_expander9" display="none" style="cursor: pointer;">
                    <path id="kity_path_143" fill="white" stroke="gray" d="M130.50000769644976,251.50000128895044A6,6,0,1,1,118.50000769644976,251.50000128895044A6,6,0,1,1,130.50000769644976,251.50000128895044"></path>
                    <path id="kity_path_144" fill="none" stroke="gray"></path>
                </g>
                <path id="node_outline10" fill="rgb(238, 243, 246)" stroke="rgb(115, 161, 191)" d="M27.50000687688589,235.50000128895044h87a3,3,0,0,1,3,3v26a3,3,0,0,1,-3,3h-87a3,3,0,0,1,-3,-3v-26a3,3,0,0,1,3,-3z" stroke-width="1"></path>
                <g id="node_text10" fill="black">
                    <text id="kity_text_61" text-rendering="inherit" font-size="14" dy=".8em" y="242.400001257658" x="69.50000687688589">百科</text>
                </g>
                <g id="node_priority8">
                    <path id="kity_path_101" fill="#006300" stroke="none" d="M45.00000651180744,255.0000011473894c0,3.866,3.134,7,7,7h6c3.866,0,7,-3.134,7,-7V249.0000011473894H45.00000651180744V255.0000011473894z"></path>
                    <path id="kity_path_102" fill="#00AF00" stroke="none" d="M65.00000651180744,252.0000011473894c0,3.866,-3.134,7,-7,7H52.00000651180744c-3.866,0,-7,-3.134,-7,-7V249.0000011473894c0,-3.866,3.134,-7,7,-7h6c3.866,0,7,3.134,7,7V252.0000011473894z" opacity="0.8"></path>
                    <text id="kity_text_103" text-rendering="geometricPrecision" x="54.00000650435686" y="251.50000113993883" text-anchor="middle" font-style="italic" font-size="12" fill="white" dy="5">3</text>
                </g>
            </g>
            <g id="minder_node11">
                <g id="node_expander10" display="none" style="cursor: pointer;">
                    <path id="kity_path_146" fill="white" stroke="gray" d="M130.50000769644976,324.5000023767352A6,6,0,1,1,118.50000769644976,324.5000023767352A6,6,0,1,1,130.50000769644976,324.5000023767352"></path>
                    <path id="kity_path_147" fill="none" stroke="gray"></path>
                </g>
                <path id="node_outline11" fill="rgb(238, 243, 246)" stroke="rgb(115, 161, 191)" d="M23.500006444752216,307.5000023767352h91a3,3,0,0,1,3,3v28a3,3,0,0,1,-3,3h-91a3,3,0,0,1,-3,-3v-28a3,3,0,0,1,3,-3z" stroke-width="1"></path>
                <g id="node_text11" fill="black">
                    <text id="kity_text_63" text-rendering="inherit" font-size="14" dy=".8em" y="315.4000023454428" x="40.500006444752216">更多</text>
                </g>
                <a id="kity_a_104" xlink:href="http://www.baidu.com/more" target="_blank" xlink:title="http://www.baidu.com/more" style="cursor: pointer;">
                    <path id="kity_path_106" fill="rgba(255, 255, 255, 0)" stroke="none" d="M77.50000696629286,313.5000023022294h16a4,4,0,0,1,4,4v14a4,4,0,0,1,-4,4h-16a4,4,0,0,1,-4,-4v-14a4,4,0,0,1,4,-4z"></path>
                    <path id="kity_path_105" fill="#666" stroke="none" d="M92.11400696629286,329.7240023022294h-1.278c-1.668,0,-3.07,-1.07,-3.599,-2.556h4.877c0.707,0,1.278,-0.571,1.278,-1.278V323.3340023022294c0,-0.707,-0.571,-1.278,-1.278,-1.278h-4.877C87.76600696629286,320.57100230222943,89.16800696629286,319.5000023022294,90.83600696629286,319.5000023022294h1.278c2.116,0,3.834,1.716,3.834,3.834V325.8900023022294C95.94800696629287,328.0080023022294,94.23000696629286,329.7240023022294,92.11400696629286,329.7240023022294zM80.61200696629285,324.6120023022294c0,-0.707,0.573,-1.278,1.278,-1.278h7.668c0.707,0,1.278,0.571,1.278,1.278S90.26500696629286,325.8900023022294,89.55800696629285,325.8900023022294H81.89000696629286C81.18500696629286,325.8900023022294,80.61200696629285,325.3190023022294,80.61200696629285,324.6120023022294zM78.05600696629286,323.3340023022294V325.8900023022294c0,0.707,0.573,1.278,1.278,1.278h4.877c-0.528,1.486,-1.932,2.556,-3.599,2.556H79.33400696629286C77.21600696629285,329.7240023022294,75.50000696629286,328.0080023022294,75.50000696629286,325.8900023022294V323.3340023022294C75.50000696629286,321.2160023022294,77.21600696629285,319.5000023022294,79.33400696629286,319.5000023022294h1.278c1.667,0,3.071,1.071,3.599,2.556H79.33400696629286C78.62900696629286,322.0560023022294,78.05600696629286,322.6270023022294,78.05600696629286,323.3340023022294z"></path>
                </a>
            </g>
        </g>
    </g>
</svg>